<?xml version="1.0" encoding="utf-8" standalone="no"?>
<!DOCTYPE svg PUBLIC "-//W3C//DTD SVG 1.1//EN"
  "http://www.w3.org/Graphics/SVG/1.1/DTD/svg11.dtd">
<!-- Created with matplotlib (https://matplotlib.org/) -->
<svg height="720pt" version="1.1" viewBox="0 0 720 720" width="720pt" xmlns="http://www.w3.org/2000/svg" xmlns:xlink="http://www.w3.org/1999/xlink">
 <metadata>
  <rdf:RDF xmlns:cc="http://creativecommons.org/ns#" xmlns:dc="http://purl.org/dc/elements/1.1/" xmlns:rdf="http://www.w3.org/1999/02/22-rdf-syntax-ns#">
   <cc:Work>
    <dc:type rdf:resource="http://purl.org/dc/dcmitype/StillImage"/>
    <dc:date>2021-03-24T20:06:06.966267</dc:date>
    <dc:format>image/svg+xml</dc:format>
    <dc:creator>
     <cc:Agent>
      <dc:title>Matplotlib v3.3.2, https://matplotlib.org/</dc:title>
     </cc:Agent>
    </dc:creator>
   </cc:Work>
  </rdf:RDF>
 </metadata>
 <defs>
  <style type="text/css">*{stroke-linecap:butt;stroke-linejoin:round;}</style>
 </defs>
 <g id="figure_1">
  <g id="patch_1">
   <path d="M 0 720 
L 720 720 
L 720 0 
L 0 0 
z
" style="fill:#ffffff;"/>
  </g>
  <g id="axes_1">
   <g id="patch_2">
    <path d="M 582.0912 362.5488 
C 582.0912 339.731819 578.499764 317.056382 571.448929 295.356144 
C 564.398094 273.655905 553.975339 253.200098 540.563854 234.740773 
C 527.152369 216.281448 510.918548 200.047628 492.459223 186.636143 
C 473.999897 173.224658 453.54409 162.801904 431.843851 155.75107 
C 410.143613 148.700235 387.468176 145.108799 364.651195 145.1088 
C 341.834214 145.108801 319.158777 148.700237 297.458539 155.751073 
C 275.758301 162.801908 255.302494 173.224663 236.843169 186.636149 
C 218.383844 200.047634 202.150024 216.281455 188.73854 234.740781 
C 175.327056 253.200107 164.904302 273.655915 157.853468 295.356153 
C 150.802634 317.056392 147.211199 339.731829 147.2112 362.54881 
C 147.211201 385.365791 150.802639 408.041228 157.853475 429.741466 
C 164.904311 451.441704 175.327066 471.89751 188.738552 490.356835 
C 202.150038 508.81616 218.383859 525.049979 236.843185 538.461463 
C 255.302512 551.872947 275.758319 562.2957 297.458558 569.346533 
C 319.158797 576.397367 341.834234 579.988802 364.651215 579.9888 
C 387.468196 579.988798 410.143633 576.39736 431.843871 569.346524 
L 364.6512 362.5488 
L 582.0912 362.5488 
z
" style="fill:#4c4c4c;opacity:0.5;stroke:#4c4c4c;stroke-linejoin:miter;"/>
   </g>
   <g id="patch_3">
    <path d="M 431.843871 569.346524 
C 464.477114 558.743338 494.141827 540.564775 518.404513 516.302084 
C 542.667199 492.039393 560.845756 462.374677 571.448936 429.741432 
L 364.6512 362.5488 
L 431.843871 569.346524 
z
" style="fill:#262626;opacity:0.5;stroke:#262626;stroke-linejoin:miter;"/>
   </g>
   <g id="patch_4">
    <path d="M 571.448936 429.741432 
C 574.968942 418.907965 577.632216 407.814625 579.414157 396.563885 
C 581.196097 385.313146 582.091201 373.939756 582.0912 362.548775 
L 364.6512 362.5488 
L 571.448936 429.741432 
z
" style="opacity:0.5;stroke:#000000;stroke-linejoin:miter;"/>
   </g>
   <g id="patch_5">
    <path d="M 586.44 358.2 
C 586.44 335.383019 582.848564 312.707582 575.797729 291.007344 
C 568.746894 269.307105 558.324139 248.851298 544.912654 230.391973 
C 531.501169 211.932648 515.267348 195.698828 496.808023 182.287343 
C 478.348697 168.875858 457.89289 158.453104 436.192651 151.40227 
C 414.492413 144.351435 391.816976 140.759999 368.999995 140.76 
C 346.183014 140.760001 323.507577 144.351437 301.807339 151.402273 
C 280.107101 158.453108 259.651294 168.875863 241.191969 182.287349 
C 222.732644 195.698834 206.498824 211.932655 193.08734 230.391981 
C 179.675856 248.851307 169.253102 269.307115 162.202268 291.007353 
C 155.151434 312.707592 151.559999 335.383029 151.56 358.20001 
C 151.560001 381.016991 155.151439 403.692428 162.202275 425.392666 
C 169.253111 447.092904 179.675866 467.54871 193.087352 486.008035 
C 206.498838 504.46736 222.732659 520.701179 241.191985 534.112663 
C 259.651312 547.524147 280.107119 557.9469 301.807358 564.997733 
C 323.507597 572.048567 346.183034 575.640002 369.000015 575.64 
C 391.816996 575.639998 414.492433 572.04856 436.192671 564.997724 
L 369 358.2 
L 586.44 358.2 
z
" style="fill:#ffffff;stroke:#ffffff;stroke-linejoin:miter;"/>
   </g>
   <g id="patch_6">
    <path d="M 436.192671 564.997724 
C 468.825914 554.394538 498.490627 536.215975 522.753313 511.953284 
C 547.015999 487.690593 565.194556 458.025877 575.797736 425.392632 
L 369 358.2 
L 436.192671 564.997724 
z
" style="fill:#7f7f7f;stroke:#ffffff;stroke-linejoin:miter;"/>
   </g>
   <g id="patch_7">
    <path d="M 575.797736 425.392632 
C 579.317742 414.559165 581.981016 403.465825 583.762957 392.215085 
C 585.544897 380.964346 586.440001 369.590956 586.44 358.199975 
L 369 358.2 
L 575.797736 425.392632 
z
" style="stroke:#ffffff;stroke-linejoin:miter;"/>
   </g>
   <g id="text_1">
    <!-- D -->
    <g style="fill:#262626;" transform="translate(161.755449 223.279929)scale(0.2 -0.2)">
     <defs>
      <path d="M 10 0 
L 28.796875 0 
C 50.90625 0 63 13.703125 63 36.90625 
C 63 60.203125 50.90625 73.40625 28.40625 73.40625 
L 10 73.40625 
z
M 19.296875 7.59375 
L 19.296875 65.796875 
L 27.59375 65.796875 
C 44.90625 65.796875 53.40625 55.5 53.40625 36.90625 
C 53.40625 18.40625 44.90625 7.59375 27.59375 7.59375 
z
" id="NotoSansCJKjp-Regular-68"/>
     </defs>
     <use xlink:href="#NotoSansCJKjp-Regular-68"/>
    </g>
   </g>
   <g id="text_2">
    <!-- 80.00% -->
    <g style="fill:#262626;" transform="translate(229.263341 287.183939)scale(0.2 -0.2)">
     <defs>
      <path d="M 27.90625 -1.296875 
C 41.703125 -1.296875 50.90625 7 50.90625 17.703125 
C 50.90625 27.703125 44.90625 33.203125 38.5 36.90625 
L 38.5 37.40625 
C 42.90625 40.796875 48.296875 47.40625 48.296875 55.09375 
C 48.296875 66.40625 40.703125 74.40625 28.203125 74.40625 
C 16.796875 74.40625 8.09375 67 8.09375 55.796875 
C 8.09375 48.09375 12.59375 42.59375 18 38.90625 
L 18 38.40625 
C 11.296875 34.796875 4.5 28 4.5 18.203125 
C 4.5 6.90625 14.40625 -1.296875 27.90625 -1.296875 
z
M 32.90625 39.796875 
C 24.296875 43.203125 16.40625 47 16.40625 55.796875 
C 16.40625 62.90625 21.296875 67.703125 28.09375 67.703125 
C 36 67.703125 40.5 61.796875 40.5 54.59375 
C 40.5 49.203125 37.90625 44.203125 32.90625 39.796875 
z
M 28.09375 5.5 
C 19.296875 5.5 12.796875 11.203125 12.796875 19 
C 12.796875 26 16.90625 31.796875 22.796875 35.59375 
C 33.203125 31.40625 42.203125 27.703125 42.203125 17.90625 
C 42.203125 10.59375 36.5 5.5 28.09375 5.5 
z
" id="NotoSansCJKjp-Regular-56"/>
      <path d="M 27.796875 -1.296875 
C 41.703125 -1.296875 50.59375 11.40625 50.59375 36.90625 
C 50.59375 62.296875 41.703125 74.703125 27.796875 74.703125 
C 13.796875 74.703125 4.90625 62.40625 4.90625 36.90625 
C 4.90625 11.40625 13.796875 -1.296875 27.796875 -1.296875 
z
M 27.796875 6 
C 19.40625 6 13.796875 15.296875 13.796875 36.90625 
C 13.796875 58.296875 19.40625 67.40625 27.796875 67.40625 
C 36.09375 67.40625 41.703125 58.296875 41.703125 36.90625 
C 41.703125 15.296875 36.09375 6 27.796875 6 
z
" id="NotoSansCJKjp-Regular-48"/>
      <path d="M 13.90625 -1.296875 
C 17.5 -1.296875 20.5 1.5 20.5 5.59375 
C 20.5 9.796875 17.5 12.703125 13.90625 12.703125 
C 10.296875 12.703125 7.296875 9.796875 7.296875 5.59375 
C 7.296875 1.5 10.296875 -1.296875 13.90625 -1.296875 
z
" id="NotoSansCJKjp-Regular-46"/>
      <path d="M 20.5 28.40625 
C 30.59375 28.40625 37.203125 36.90625 37.203125 51.703125 
C 37.203125 66.40625 30.59375 74.703125 20.5 74.703125 
C 10.5 74.703125 3.90625 66.40625 3.90625 51.703125 
C 3.90625 36.90625 10.5 28.40625 20.5 28.40625 
z
M 20.5 34.09375 
C 14.796875 34.09375 10.796875 40 10.796875 51.703125 
C 10.796875 63.40625 14.796875 69.09375 20.5 69.09375 
C 26.296875 69.09375 30.296875 63.40625 30.296875 51.703125 
C 30.296875 40 26.296875 34.09375 20.5 34.09375 
z
M 22.703125 -1.296875 
L 28.796875 -1.296875 
L 69.296875 74.703125 
L 63.09375 74.703125 
z
M 71.59375 -1.296875 
C 81.59375 -1.296875 88.203125 7.09375 88.203125 21.90625 
C 88.203125 36.59375 81.59375 44.90625 71.59375 44.90625 
C 61.59375 44.90625 54.90625 36.59375 54.90625 21.90625 
C 54.90625 7.09375 61.59375 -1.296875 71.59375 -1.296875 
z
M 71.59375 4.296875 
C 65.796875 4.296875 61.90625 10.203125 61.90625 21.90625 
C 61.90625 33.59375 65.796875 39.296875 71.59375 39.296875 
C 77.296875 39.296875 81.296875 33.59375 81.296875 21.90625 
C 81.296875 10.203125 77.296875 4.296875 71.59375 4.296875 
z
" id="NotoSansCJKjp-Regular-37"/>
     </defs>
     <use xlink:href="#NotoSansCJKjp-Regular-56"/>
     <use x="55.499985" xlink:href="#NotoSansCJKjp-Regular-48"/>
     <use x="110.999969" xlink:href="#NotoSansCJKjp-Regular-46"/>
     <use x="138.799957" xlink:href="#NotoSansCJKjp-Regular-48"/>
     <use x="194.299942" xlink:href="#NotoSansCJKjp-Regular-48"/>
     <use x="249.799927" xlink:href="#NotoSansCJKjp-Regular-37"/>
    </g>
   </g>
   <g id="text_3">
    <!-- C -->
    <g style="fill:#262626;" transform="translate(538.128644 532.997363)scale(0.2 -0.2)">
     <defs>
      <path d="M 37.703125 -1.296875 
C 47.203125 -1.296875 54.40625 2.5 60.203125 9.203125 
L 55.09375 15 
C 50.40625 9.90625 45.09375 6.796875 38.09375 6.796875 
C 24.09375 6.796875 15.296875 18.40625 15.296875 36.90625 
C 15.296875 55.203125 24.5 66.59375 38.40625 66.59375 
C 44.703125 66.59375 49.59375 63.703125 53.40625 59.59375 
L 58.40625 65.59375 
C 54.203125 70.296875 47.203125 74.703125 38.296875 74.703125 
C 19.703125 74.703125 5.796875 60.296875 5.796875 36.59375 
C 5.796875 12.796875 19.5 -1.296875 37.703125 -1.296875 
z
" id="NotoSansCJKjp-Regular-67"/>
     </defs>
     <use xlink:href="#NotoSansCJKjp-Regular-67"/>
    </g>
   </g>
   <g id="text_4">
    <!-- 15.00% -->
    <g style="fill:#262626;" transform="translate(427.062925 456.12072)scale(0.2 -0.2)">
     <defs>
      <path d="M 8.796875 0 
L 49 0 
L 49 7.59375 
L 34.296875 7.59375 
L 34.296875 73.40625 
L 27.296875 73.40625 
C 23.296875 71 18.59375 69.296875 12.09375 68.09375 
L 12.09375 62.296875 
L 25.09375 62.296875 
L 25.09375 7.59375 
L 8.796875 7.59375 
z
" id="NotoSansCJKjp-Regular-49"/>
      <path d="M 26.09375 -1.296875 
C 38.5 -1.296875 50.09375 7.796875 50.09375 23.90625 
C 50.09375 40 40.203125 47.203125 28 47.203125 
C 23.59375 47.203125 20.40625 46.09375 17.09375 44.296875 
L 18.90625 65.5 
L 46.59375 65.5 
L 46.59375 73.40625 
L 10.90625 73.40625 
L 8.59375 39 
L 13.5 36 
C 17.703125 38.796875 20.796875 40.296875 25.703125 40.296875 
C 34.90625 40.296875 40.90625 34.09375 40.90625 23.59375 
C 40.90625 12.90625 33.90625 6.296875 25.296875 6.296875 
C 16.796875 6.296875 11.5 10.203125 7.296875 14.40625 
L 2.796875 8.40625 
C 7.703125 3.5 14.703125 -1.296875 26.09375 -1.296875 
z
" id="NotoSansCJKjp-Regular-53"/>
     </defs>
     <use xlink:href="#NotoSansCJKjp-Regular-49"/>
     <use x="55.499985" xlink:href="#NotoSansCJKjp-Regular-53"/>
     <use x="110.999969" xlink:href="#NotoSansCJKjp-Regular-46"/>
     <use x="138.799957" xlink:href="#NotoSansCJKjp-Regular-48"/>
     <use x="194.299942" xlink:href="#NotoSansCJKjp-Regular-48"/>
     <use x="249.799927" xlink:href="#NotoSansCJKjp-Regular-37"/>
    </g>
   </g>
   <g id="text_5">
    <!-- B -->
    <g style="fill:#262626;" transform="translate(605.239252 401.285344)scale(0.2 -0.2)">
     <defs>
      <path d="M 10 0 
L 33.40625 0 
C 49.796875 0 61.203125 7.09375 61.203125 21.5 
C 61.203125 31.5 55 37.296875 46.296875 39 
L 46.296875 39.5 
C 53.09375 41.703125 57 48.09375 57 55.40625 
C 57 68.296875 46.703125 73.40625 31.796875 73.40625 
L 10 73.40625 
z
M 19.296875 42.09375 
L 19.296875 66 
L 30.59375 66 
C 42 66 47.90625 62.796875 47.90625 54.203125 
C 47.90625 46.796875 42.796875 42.09375 30.203125 42.09375 
z
M 19.296875 7.40625 
L 19.296875 35.09375 
L 32.09375 35.09375 
C 44.90625 35.09375 52.09375 30.90625 52.09375 21.796875 
C 52.09375 11.90625 44.703125 7.40625 32.09375 7.40625 
z
" id="NotoSansCJKjp-Regular-66"/>
     </defs>
     <use xlink:href="#NotoSansCJKjp-Regular-66"/>
    </g>
   </g>
   <g id="text_6">
    <!-- 5.00% -->
    <g style="fill:#262626;" transform="translate(469.218712 384.277801)scale(0.2 -0.2)">
     <use xlink:href="#NotoSansCJKjp-Regular-53"/>
     <use x="55.499985" xlink:href="#NotoSansCJKjp-Regular-46"/>
     <use x="83.299973" xlink:href="#NotoSansCJKjp-Regular-48"/>
     <use x="138.799957" xlink:href="#NotoSansCJKjp-Regular-48"/>
     <use x="194.299942" xlink:href="#NotoSansCJKjp-Regular-37"/>
    </g>
   </g>
   <g id="text_7">
    <!-- 患者的ASIA评级分布 -->
    <g style="fill:#262626;" transform="translate(314.375625 80.4)scale(0.12 -0.12)">
     <defs>
      <path d="M 46.09375 43.5 
L 46.09375 33.90625 
L 19.40625 33.90625 
L 19.40625 43.5 
z
M 80.59375 43.5 
L 80.59375 33.90625 
L 53.296875 33.90625 
L 53.296875 43.5 
z
M 23 61.40625 
L 23 70.40625 
L 46.09375 70.40625 
L 46.09375 61.40625 
z
M 77.203125 70.40625 
L 77.203125 61.40625 
L 53.296875 61.40625 
L 53.296875 70.40625 
z
M 19.40625 28.203125 
L 46.09375 28.203125 
L 46.09375 23.59375 
C 44.796875 24.296875 43.5 25.09375 42.203125 25.703125 
L 37.296875 21.59375 
C 43.40625 18.203125 50.59375 13 53.796875 9 
L 59 13.5 
C 56.90625 16 53.40625 18.90625 49.5 21.40625 
L 53.296875 21.40625 
L 53.296875 28.203125 
L 80.59375 28.203125 
L 80.59375 25.203125 
L 87.796875 25.203125 
L 87.796875 49.203125 
L 53.296875 49.203125 
L 53.296875 55.703125 
L 84.59375 55.703125 
L 84.59375 76.09375 
L 53.296875 76.09375 
L 53.296875 83.59375 
L 46.09375 83.59375 
L 46.09375 76.09375 
L 16.09375 76.09375 
L 16.09375 55.703125 
L 46.09375 55.703125 
L 46.09375 49.203125 
L 12.59375 49.203125 
L 12.59375 25 
L 19.40625 25 
z
M 10.203125 -4.90625 
C 18 0.09375 22 8.5 24.5 17.09375 
L 18.09375 19.296875 
C 15.796875 11.5 11.40625 3.703125 4.296875 -0.703125 
z
M 44 0.203125 
C 38.703125 0.203125 37.90625 0.703125 37.90625 3.203125 
L 37.90625 18.90625 
L 30.59375 18.90625 
L 30.59375 3.203125 
C 30.59375 -4.5 33.203125 -6.5 43.40625 -6.5 
L 62.5 -6.5 
C 70.703125 -6.5 72.90625 -3.703125 73.90625 7.796875 
C 71.90625 8.09375 68.796875 9.296875 67.203125 10.40625 
C 66.90625 1.5 66.09375 0.203125 61.90625 0.203125 
z
M 71 16.40625 
C 78.296875 10.40625 86 1.703125 89 -4.59375 
L 95.5 -0.796875 
C 92.203125 5.59375 84.40625 14 76.90625 19.796875 
z
" id="NotoSansCJKjp-Regular-24739"/>
      <path d="M 47.296875 51.703125 
L 47.296875 64.5 
L 69.5 64.5 
C 64.796875 60 59.703125 55.703125 54.296875 51.703125 
z
M 74.40625 18.40625 
L 33.90625 18.40625 
L 33.90625 28.296875 
L 74.40625 28.296875 
z
M 33.90625 2.09375 
L 33.90625 12.5 
L 74.40625 12.5 
L 74.40625 2.09375 
z
M 94.203125 45 
L 94.203125 51.703125 
L 65.40625 51.703125 
C 74.5 59.203125 82.703125 67.59375 89.703125 76.796875 
L 83.40625 80.203125 
C 80 75.59375 76.203125 71.203125 72 67 
L 72 71.09375 
L 47.296875 71.09375 
L 47.296875 83.59375 
L 40 83.59375 
L 40 71.09375 
L 14.5 71.09375 
L 14.5 64.5 
L 40 64.5 
L 40 51.703125 
L 5.796875 51.703125 
L 5.796875 45 
L 44.703125 45 
C 32.09375 36.90625 18.09375 30.296875 3.59375 25.203125 
C 5 23.703125 7.40625 20.703125 8.296875 19.09375 
C 14.40625 21.40625 20.59375 24.09375 26.59375 27 
L 26.59375 -7.59375 
L 33.90625 -7.59375 
L 33.90625 -4.40625 
L 74.40625 -4.40625 
L 74.40625 -7.203125 
L 82 -7.203125 
L 82 34.59375 
L 40.703125 34.59375 
C 46.203125 37.796875 51.59375 41.296875 56.796875 45 
z
" id="NotoSansCJKjp-Regular-32773"/>
      <path d="M 36.796875 40.09375 
L 15.796875 40.09375 
L 15.796875 61 
L 36.796875 61 
z
M 15.796875 9.5 
L 15.796875 33.5 
L 36.796875 33.5 
L 36.796875 9.5 
z
M 24.203125 83.90625 
C 23.5 79.203125 21.703125 72.5 20.203125 67.703125 
L 9 67.703125 
L 9 -5.09375 
L 15.796875 -5.09375 
L 15.796875 2.796875 
L 43.59375 2.796875 
L 43.59375 67.703125 
L 27 67.703125 
C 28.703125 72 30.5 77.5 32.203125 82.40625 
z
M 92.5 68 
L 62.59375 68 
C 64.296875 72.703125 65.703125 77.5 66.90625 82.40625 
L 59.796875 84.09375 
C 56.59375 70.40625 51.203125 56.59375 44.5 47.796875 
C 46.09375 46.796875 49.296875 44.796875 50.59375 43.59375 
C 54.09375 48.296875 57.203125 54.40625 60 61.09375 
L 85.40625 61.09375 
C 84.09375 21.296875 82.59375 6.09375 79.296875 2.59375 
C 78.296875 1.296875 77.203125 1.09375 75.203125 1.09375 
C 72.90625 1.09375 66.90625 1.09375 60.40625 1.703125 
C 61.796875 -0.40625 62.703125 -3.40625 62.90625 -5.59375 
C 68.5 -5.90625 74.203125 -6.09375 77.703125 -5.703125 
C 81.09375 -5.40625 83.40625 -4.5 85.59375 -1.703125 
C 89.59375 3.203125 90.90625 18.59375 92.5 64.203125 
z
M 76.703125 23 
C 73.5 28.90625 66.59375 38.5 61 45.59375 
L 55.203125 42.203125 
C 60.703125 35 67.40625 25.09375 70.40625 19.09375 
z
" id="NotoSansCJKjp-Regular-30340"/>
      <path d="M 22.703125 41 
C 25.296875 49.296875 27.703125 57.203125 30 65.796875 
L 30.40625 65.796875 
C 32.796875 57.296875 35.09375 49.296875 37.796875 41 
L 41.296875 29.796875 
L 19.09375 29.796875 
z
M 0.296875 0 
L 9.703125 0 
L 16.796875 22.40625 
L 43.59375 22.40625 
L 50.59375 0 
L 60.40625 0 
L 35.5 73.40625 
L 25.203125 73.40625 
z
" id="NotoSansCJKjp-Regular-65"/>
      <path d="M 30.40625 -1.296875 
C 45.703125 -1.296875 55.296875 7.90625 55.296875 19.5 
C 55.296875 30.40625 48.703125 35.40625 40.203125 39.09375 
L 29.703125 43.59375 
C 24 46 17.59375 48.703125 17.59375 55.796875 
C 17.59375 62.40625 23 66.59375 31.296875 66.59375 
C 38.09375 66.59375 43.5 63.90625 48 59.703125 
L 52.90625 65.59375 
C 47.703125 71 40 74.703125 31.296875 74.703125 
C 18 74.703125 8.203125 66.5 8.203125 55.203125 
C 8.203125 44.5 16.296875 39.296875 23.09375 36.40625 
L 33.703125 31.796875 
C 40.59375 28.703125 45.90625 26.296875 45.90625 18.796875 
C 45.90625 11.59375 40.09375 6.796875 30.5 6.796875 
C 22.90625 6.796875 15.5 10.40625 10.296875 15.90625 
L 4.703125 9.59375 
C 11.09375 2.90625 20 -1.296875 30.40625 -1.296875 
z
" id="NotoSansCJKjp-Regular-83"/>
      <path d="M 10 0 
L 19.296875 0 
L 19.296875 73.40625 
L 10 73.40625 
z
" id="NotoSansCJKjp-Regular-73"/>
      <path d="M 29.90625 65.5 
C 26.796875 69.59375 20.09375 75.90625 14.796875 80.40625 
L 10 75.796875 
C 15.296875 71.09375 21.90625 64.5 24.90625 60.203125 
z
M 25.40625 9.90625 
L 25.40625 52.5 
L 18.40625 52.5 
L 18.40625 52.40625 
L 4.703125 52.40625 
L 4.703125 45.296875 
L 18.40625 45.296875 
L 18.40625 8.59375 
C 18.40625 4.296875 15.59375 1.703125 13.796875 0.703125 
C 15.09375 -0.90625 16.796875 -3.90625 17.40625 -5.59375 
C 18.796875 -3.703125 21.40625 -1.703125 37.90625 10.90625 
C 37 12.296875 35.703125 15.203125 35.203125 17.09375 
z
M 95.59375 34.90625 
L 67.703125 34.90625 
L 67.703125 71.5 
L 91.203125 71.5 
L 91.203125 78.59375 
L 35.90625 78.59375 
L 35.90625 71.5 
L 60.296875 71.5 
L 60.296875 34.90625 
L 33.203125 34.90625 
L 33.203125 27.796875 
L 60.296875 27.796875 
L 60.296875 -7.59375 
L 67.703125 -7.59375 
L 67.703125 27.796875 
L 95.59375 27.796875 
z
M 39.296875 64.296875 
C 42 56.5 44.296875 46.40625 45 39.703125 
L 51.703125 41.5 
C 51 48.203125 48.5 58.203125 45.59375 66 
z
M 81.5 39.296875 
C 84.203125 45.59375 87.09375 55.90625 89.59375 64.296875 
L 82.296875 66.09375 
C 80.90625 58.59375 78.09375 47.59375 75.59375 40.90625 
z
" id="NotoSansCJKjp-Regular-35780"/>
      <path d="M 18.59375 29.5 
C 25.90625 38.203125 33.203125 48.59375 39.296875 59.09375 
L 33.203125 62.796875 
C 31.203125 59.203125 29.09375 55.5 26.90625 52 
L 13.5 50.5 
C 19.59375 59 25.59375 69.90625 30.296875 80.5 
L 23.5 83.796875 
C 19.203125 71.59375 11.59375 58.703125 9.40625 55.40625 
C 7.09375 52.09375 5.296875 49.59375 3.59375 49.203125 
C 4.40625 47.203125 5.5 43.796875 5.90625 42.203125 
C 7.40625 42.90625 9.796875 43.59375 22.5 45.296875 
C 18 38.59375 13.796875 33.296875 11.90625 31.296875 
C 8.796875 27.5 6.296875 25.09375 4.203125 24.703125 
C 5 22.703125 6.09375 19.40625 6.5 17.90625 
C 8.703125 19.5 12.09375 20.796875 38.5 28.703125 
C 38.296875 30.296875 38 33 38 35 
z
M 38.5 17.90625 
C 26 13.296875 13.09375 8.59375 4.59375 5.90625 
L 6.40625 -1.40625 
C 15.703125 2.09375 28.203125 6.796875 39.90625 11.5 
z
M 74.40625 70.203125 
C 72.09375 60.90625 69.09375 50.5 66.59375 43.5 
L 83.703125 43.5 
C 81.09375 33.90625 77.296875 25.796875 72.40625 18.90625 
C 65.796875 27.90625 60.59375 38.703125 57.203125 50.09375 
C 57.703125 56.40625 58.203125 63.203125 58.5 70.203125 
z
M 87.59375 50.40625 
L 86.203125 50.09375 
L 76 50.09375 
C 78.5 58.296875 81.40625 68.59375 83.59375 77.203125 
L 40.09375 77.203125 
L 40.09375 70.203125 
L 51.203125 70.203125 
C 50 38.40625 46.59375 12.59375 33.09375 -3.203125 
C 34.796875 -4.296875 38.296875 -6.703125 39.5 -7.90625 
C 48.09375 3.296875 52.796875 17.90625 55.40625 35.703125 
C 58.796875 27.40625 63 19.90625 67.796875 13.203125 
C 61.796875 6.5 54.796875 1.40625 47 -2.203125 
C 48.59375 -3.296875 51.203125 -6.09375 52.203125 -7.90625 
C 59.5 -4.09375 66.40625 0.90625 72.40625 7.5 
C 77.90625 1.296875 84.09375 -3.90625 91.09375 -7.59375 
C 92.296875 -5.59375 94.59375 -2.90625 96.203125 -1.5 
C 89.09375 1.90625 82.59375 6.90625 77 13.203125 
C 83.90625 22.40625 89.203125 34.09375 92.203125 48.5 
z
" id="NotoSansCJKjp-Regular-32423"/>
      <path d="M 32.59375 81.59375 
C 26.40625 66.296875 15.296875 52.5 2.703125 44 
C 4.5 42.703125 7.703125 39.90625 9 38.296875 
C 21.59375 47.703125 33.203125 62.59375 40.40625 79.40625 
z
M 18.90625 46.09375 
L 18.90625 38.90625 
L 39.296875 38.90625 
C 37 22 31.5 6.203125 8 -1.59375 
C 9.703125 -3.203125 11.796875 -6.203125 12.796875 -8.09375 
C 38.203125 1.09375 44.59375 19.203125 47.203125 38.90625 
L 73 38.90625 
C 71.796875 13.703125 70.40625 3.703125 67.796875 1.203125 
C 66.90625 0.09375 65.703125 -0.09375 63.59375 -0.09375 
C 61.296875 -0.09375 55.09375 0 48.59375 0.59375 
C 50 -1.59375 50.90625 -4.59375 51.09375 -6.796875 
C 57.296875 -7.09375 63.5 -7.296875 66.796875 -7 
C 70.296875 -6.59375 72.40625 -6 74.5 -3.5 
C 77.90625 0.296875 79.40625 11.796875 80.796875 42.5 
C 80.90625 43.5 81 46.09375 81 46.09375 
z
M 60.09375 79 
C 67.5 64.203125 80.09375 48.09375 91.09375 39.203125 
C 92.5 41.296875 95.296875 44.203125 97.203125 45.796875 
C 86.40625 53.40625 73.59375 68.40625 67.09375 81.796875 
z
" id="NotoSansCJKjp-Regular-20998"/>
      <path d="M 93.796875 61.203125 
L 93.796875 68.40625 
L 42.90625 68.40625 
C 44.59375 72.90625 46.296875 77.40625 47.703125 81.90625 
L 40 83.703125 
C 38.59375 78.59375 36.90625 73.5 34.703125 68.40625 
L 6.40625 68.40625 
L 6.40625 61.203125 
L 31.5 61.203125 
C 24.796875 48 15.59375 35.703125 3.5 27.5 
C 5 25.90625 6.90625 23.09375 7.90625 21.296875 
C 13.296875 25 18.09375 29.40625 22.40625 34.296875 
L 22.40625 1.5 
L 29.796875 1.5 
L 29.796875 36 
L 51 36 
L 51 -7.796875 
L 58.40625 -7.796875 
L 58.40625 36 
L 80.90625 36 
L 80.90625 11.09375 
C 80.90625 9.703125 80.40625 9.296875 78.703125 9.203125 
C 77.203125 9.203125 71.40625 9.09375 65 9.296875 
C 66 7.296875 67.09375 4.59375 67.40625 2.59375 
C 76 2.5 81.296875 2.59375 84.296875 3.796875 
C 87.40625 4.90625 88.296875 7 88.296875 11 
L 88.296875 43 
L 58.40625 43 
L 58.40625 56.40625 
L 51 56.40625 
L 51 43 
L 29.203125 43 
C 33.203125 48.703125 36.703125 54.796875 39.703125 61.203125 
z
" id="NotoSansCJKjp-Regular-24067"/>
     </defs>
     <use xlink:href="#NotoSansCJKjp-Regular-24739"/>
     <use x="99.999985" xlink:href="#NotoSansCJKjp-Regular-32773"/>
     <use x="199.999969" xlink:href="#NotoSansCJKjp-Regular-30340"/>
     <use x="299.999954" xlink:href="#NotoSansCJKjp-Regular-65"/>
     <use x="360.699951" xlink:href="#NotoSansCJKjp-Regular-83"/>
     <use x="420.399948" xlink:href="#NotoSansCJKjp-Regular-73"/>
     <use x="449.699936" xlink:href="#NotoSansCJKjp-Regular-65"/>
     <use x="510.399933" xlink:href="#NotoSansCJKjp-Regular-35780"/>
     <use x="610.399918" xlink:href="#NotoSansCJKjp-Regular-32423"/>
     <use x="710.399902" xlink:href="#NotoSansCJKjp-Regular-20998"/>
     <use x="810.399887" xlink:href="#NotoSansCJKjp-Regular-24067"/>
    </g>
   </g>
  </g>
 </g>
</svg>
