<?xml version="1.0" encoding="utf-8" standalone="no"?>
<!DOCTYPE svg PUBLIC "-//W3C//DTD SVG 1.1//EN"
  "http://www.w3.org/Graphics/SVG/1.1/DTD/svg11.dtd">
<!-- Created with matplotlib (https://matplotlib.org/) -->
<svg height="432pt" version="1.1" viewBox="0 0 576 432" width="576pt" xmlns="http://www.w3.org/2000/svg" xmlns:xlink="http://www.w3.org/1999/xlink">
 <metadata>
  <rdf:RDF xmlns:cc="http://creativecommons.org/ns#" xmlns:dc="http://purl.org/dc/elements/1.1/" xmlns:rdf="http://www.w3.org/1999/02/22-rdf-syntax-ns#">
   <cc:Work>
    <dc:type rdf:resource="http://purl.org/dc/dcmitype/StillImage"/>
    <dc:date>2021-03-28T23:58:32.279811</dc:date>
    <dc:format>image/svg+xml</dc:format>
    <dc:creator>
     <cc:Agent>
      <dc:title>Matplotlib v3.3.2, https://matplotlib.org/</dc:title>
     </cc:Agent>
    </dc:creator>
   </cc:Work>
  </rdf:RDF>
 </metadata>
 <defs>
  <style type="text/css">*{stroke-linecap:butt;stroke-linejoin:round;}</style>
 </defs>
 <g id="figure_1">
  <g id="patch_1">
   <path d="M 0 432 
L 576 432 
L 576 0 
L 0 0 
z
" style="fill:#ffffff;"/>
  </g>
  <g id="axes_1">
   <g id="patch_2">
    <path d="M 63.96 369.54 
L 563.04 369.54 
L 563.04 12.96 
L 63.96 12.96 
z
" style="fill:#ffffff;"/>
   </g>
   <g id="matplotlib.axis_1">
    <g id="xtick_1">
     <g id="line2d_1">
      <defs>
       <path d="M 0 0 
L 0 6 
" id="m5bf0f47c94" style="stroke:#262626;stroke-width:1.25;"/>
      </defs>
      <g>
       <use style="fill:#262626;stroke:#262626;stroke-width:1.25;" x="80.890288" xlink:href="#m5bf0f47c94" y="369.54"/>
      </g>
     </g>
     <g id="text_1">
      <!-- 0.300 -->
      <g style="fill:#262626;" transform="translate(58.769975 392.206484)scale(0.165 -0.165)">
       <defs>
        <path d="M 29.5 -1.40625 
C 44.59375 -1.40625 54.5 11.796875 54.5 37.296875 
C 54.5 62.796875 44.59375 75.40625 29.5 75.40625 
C 14.40625 75.40625 4.40625 62.90625 4.40625 37.296875 
C 4.40625 11.796875 14.40625 -1.40625 29.5 -1.40625 
z
M 29.5 10.09375 
C 23.09375 10.09375 18.296875 16.5 18.296875 37.296875 
C 18.296875 58 23.09375 64 29.5 64 
C 35.90625 64 40.59375 58 40.59375 37.296875 
C 40.59375 16.5 35.90625 10.09375 29.5 10.09375 
z
" id="NotoSansCJKjp-Bold-48"/>
        <path d="M 16.203125 -1.40625 
C 21.5 -1.40625 25.40625 2.796875 25.40625 8.203125 
C 25.40625 13.703125 21.5 17.796875 16.203125 17.796875 
C 11 17.796875 7.09375 13.703125 7.09375 8.203125 
C 7.09375 2.796875 11 -1.40625 16.203125 -1.40625 
z
" id="NotoSansCJKjp-Bold-46"/>
        <path d="M 27.40625 -1.40625 
C 41.5 -1.40625 53.40625 6.5 53.40625 20.09375 
C 53.40625 29.796875 47 36 38.703125 38.296875 
L 38.703125 38.796875 
C 46.5 41.90625 51 47.703125 51 55.703125 
C 51 68.296875 41.296875 75.40625 27 75.40625 
C 18.296875 75.40625 11.203125 71.90625 4.796875 66.296875 
L 12.296875 57.296875 
C 16.703125 61.40625 21 63.796875 26.296875 63.796875 
C 32.59375 63.796875 36.203125 60.40625 36.203125 54.59375 
C 36.203125 48 31.796875 43.296875 18.203125 43.296875 
L 18.203125 32.796875 
C 34.296875 32.796875 38.59375 28.203125 38.59375 21 
C 38.59375 14.296875 33.5 10.59375 26 10.59375 
C 19.296875 10.59375 13.90625 13.90625 9.5 18.203125 
L 2.59375 8.90625 
C 7.796875 3 15.703125 -1.40625 27.40625 -1.40625 
z
" id="NotoSansCJKjp-Bold-51"/>
       </defs>
       <use xlink:href="#NotoSansCJKjp-Bold-48"/>
       <use x="58.899994" xlink:href="#NotoSansCJKjp-Bold-46"/>
       <use x="91.399979" xlink:href="#NotoSansCJKjp-Bold-51"/>
       <use x="150.299973" xlink:href="#NotoSansCJKjp-Bold-48"/>
       <use x="209.199966" xlink:href="#NotoSansCJKjp-Bold-48"/>
      </g>
     </g>
    </g>
    <g id="xtick_2">
     <g id="line2d_2">
      <g>
       <use style="fill:#262626;stroke:#262626;stroke-width:1.25;" x="145.973521" xlink:href="#m5bf0f47c94" y="369.54"/>
      </g>
     </g>
     <g id="text_2">
      <!-- 0.325 -->
      <g style="fill:#262626;" transform="translate(123.853208 392.206484)scale(0.165 -0.165)">
       <defs>
        <path d="M 4.296875 0 
L 53.90625 0 
L 53.90625 12.40625 
L 37.90625 12.40625 
C 34.40625 12.40625 29.5 12 25.796875 11.59375 
C 39.296875 24.796875 50.40625 39.203125 50.40625 52.59375 
C 50.40625 66.40625 41.09375 75.40625 27.09375 75.40625 
C 17 75.40625 10.40625 71.5 3.59375 64.203125 
L 11.59375 56.203125 
C 15.40625 60.296875 19.796875 63.796875 25.203125 63.796875 
C 32.296875 63.796875 36.296875 59.296875 36.296875 51.796875 
C 36.296875 40.40625 24.40625 26.5 4.296875 8.5 
z
" id="NotoSansCJKjp-Bold-50"/>
        <path d="M 27.59375 -1.40625 
C 41.296875 -1.40625 53.5 8.09375 53.5 24.59375 
C 53.5 40.703125 43.09375 48.09375 30.703125 48.09375 
C 27.296875 48.09375 24.796875 47.40625 21.796875 46 
L 23.203125 61.703125 
L 50.09375 61.703125 
L 50.09375 74.09375 
L 10.5 74.09375 
L 8.5 38.09375 
L 15.203125 33.703125 
C 19.5 36.5 21.90625 37.59375 26.296875 37.59375 
C 33.796875 37.59375 38.796875 32.796875 38.796875 24.203125 
C 38.796875 15.5 33.40625 10.59375 25.703125 10.59375 
C 18.796875 10.59375 13.59375 14 9.40625 18.09375 
L 2.59375 8.703125 
C 8.09375 3.203125 15.90625 -1.40625 27.59375 -1.40625 
z
" id="NotoSansCJKjp-Bold-53"/>
       </defs>
       <use xlink:href="#NotoSansCJKjp-Bold-48"/>
       <use x="58.899994" xlink:href="#NotoSansCJKjp-Bold-46"/>
       <use x="91.399979" xlink:href="#NotoSansCJKjp-Bold-51"/>
       <use x="150.299973" xlink:href="#NotoSansCJKjp-Bold-50"/>
       <use x="209.199966" xlink:href="#NotoSansCJKjp-Bold-53"/>
      </g>
     </g>
    </g>
    <g id="xtick_3">
     <g id="line2d_3">
      <g>
       <use style="fill:#262626;stroke:#262626;stroke-width:1.25;" x="211.056754" xlink:href="#m5bf0f47c94" y="369.54"/>
      </g>
     </g>
     <g id="text_3">
      <!-- 0.350 -->
      <g style="fill:#262626;" transform="translate(188.936441 392.206484)scale(0.165 -0.165)">
       <use xlink:href="#NotoSansCJKjp-Bold-48"/>
       <use x="58.899994" xlink:href="#NotoSansCJKjp-Bold-46"/>
       <use x="91.399979" xlink:href="#NotoSansCJKjp-Bold-51"/>
       <use x="150.299973" xlink:href="#NotoSansCJKjp-Bold-53"/>
       <use x="209.199966" xlink:href="#NotoSansCJKjp-Bold-48"/>
      </g>
     </g>
    </g>
    <g id="xtick_4">
     <g id="line2d_4">
      <g>
       <use style="fill:#262626;stroke:#262626;stroke-width:1.25;" x="276.139987" xlink:href="#m5bf0f47c94" y="369.54"/>
      </g>
     </g>
     <g id="text_4">
      <!-- 0.375 -->
      <g style="fill:#262626;" transform="translate(254.019675 392.206484)scale(0.165 -0.165)">
       <defs>
        <path d="M 18.59375 0 
L 33.5 0 
C 34.703125 29 37 44.09375 54.203125 65.09375 
L 54.203125 74.09375 
L 5 74.09375 
L 5 61.703125 
L 38.296875 61.703125 
C 24.203125 42.09375 19.90625 25.703125 18.59375 0 
z
" id="NotoSansCJKjp-Bold-55"/>
       </defs>
       <use xlink:href="#NotoSansCJKjp-Bold-48"/>
       <use x="58.899994" xlink:href="#NotoSansCJKjp-Bold-46"/>
       <use x="91.399979" xlink:href="#NotoSansCJKjp-Bold-51"/>
       <use x="150.299973" xlink:href="#NotoSansCJKjp-Bold-55"/>
       <use x="209.199966" xlink:href="#NotoSansCJKjp-Bold-53"/>
      </g>
     </g>
    </g>
    <g id="xtick_5">
     <g id="line2d_5">
      <g>
       <use style="fill:#262626;stroke:#262626;stroke-width:1.25;" x="341.22322" xlink:href="#m5bf0f47c94" y="369.54"/>
      </g>
     </g>
     <g id="text_5">
      <!-- 0.400 -->
      <g style="fill:#262626;" transform="translate(319.102908 392.206484)scale(0.165 -0.165)">
       <defs>
        <path d="M 16.40625 30.40625 
L 27.90625 48.796875 
C 30 52.796875 32 56.90625 33.796875 60.90625 
L 34.203125 60.90625 
C 34 56.5 33.703125 49.796875 33.703125 45.5 
L 33.703125 30.40625 
z
M 33.703125 0 
L 47.40625 0 
L 47.40625 19.203125 
L 56.09375 19.203125 
L 56.09375 30.40625 
L 47.40625 30.40625 
L 47.40625 74.09375 
L 29.703125 74.09375 
L 2.09375 29.203125 
L 2.09375 19.203125 
L 33.703125 19.203125 
z
" id="NotoSansCJKjp-Bold-52"/>
       </defs>
       <use xlink:href="#NotoSansCJKjp-Bold-48"/>
       <use x="58.899994" xlink:href="#NotoSansCJKjp-Bold-46"/>
       <use x="91.399979" xlink:href="#NotoSansCJKjp-Bold-52"/>
       <use x="150.299973" xlink:href="#NotoSansCJKjp-Bold-48"/>
       <use x="209.199966" xlink:href="#NotoSansCJKjp-Bold-48"/>
      </g>
     </g>
    </g>
    <g id="xtick_6">
     <g id="line2d_6">
      <g>
       <use style="fill:#262626;stroke:#262626;stroke-width:1.25;" x="406.306453" xlink:href="#m5bf0f47c94" y="369.54"/>
      </g>
     </g>
     <g id="text_6">
      <!-- 0.425 -->
      <g style="fill:#262626;" transform="translate(384.186141 392.206484)scale(0.165 -0.165)">
       <use xlink:href="#NotoSansCJKjp-Bold-48"/>
       <use x="58.899994" xlink:href="#NotoSansCJKjp-Bold-46"/>
       <use x="91.399979" xlink:href="#NotoSansCJKjp-Bold-52"/>
       <use x="150.299973" xlink:href="#NotoSansCJKjp-Bold-50"/>
       <use x="209.199966" xlink:href="#NotoSansCJKjp-Bold-53"/>
      </g>
     </g>
    </g>
    <g id="xtick_7">
     <g id="line2d_7">
      <g>
       <use style="fill:#262626;stroke:#262626;stroke-width:1.25;" x="471.389686" xlink:href="#m5bf0f47c94" y="369.54"/>
      </g>
     </g>
     <g id="text_7">
      <!-- 0.450 -->
      <g style="fill:#262626;" transform="translate(449.269374 392.206484)scale(0.165 -0.165)">
       <use xlink:href="#NotoSansCJKjp-Bold-48"/>
       <use x="58.899994" xlink:href="#NotoSansCJKjp-Bold-46"/>
       <use x="91.399979" xlink:href="#NotoSansCJKjp-Bold-52"/>
       <use x="150.299973" xlink:href="#NotoSansCJKjp-Bold-53"/>
       <use x="209.199966" xlink:href="#NotoSansCJKjp-Bold-48"/>
      </g>
     </g>
    </g>
    <g id="xtick_8">
     <g id="line2d_8">
      <g>
       <use style="fill:#262626;stroke:#262626;stroke-width:1.25;" x="536.47292" xlink:href="#m5bf0f47c94" y="369.54"/>
      </g>
     </g>
     <g id="text_8">
      <!-- 0.475 -->
      <g style="fill:#262626;" transform="translate(514.352607 392.206484)scale(0.165 -0.165)">
       <use xlink:href="#NotoSansCJKjp-Bold-48"/>
       <use x="58.899994" xlink:href="#NotoSansCJKjp-Bold-46"/>
       <use x="91.399979" xlink:href="#NotoSansCJKjp-Bold-52"/>
       <use x="150.299973" xlink:href="#NotoSansCJKjp-Bold-55"/>
       <use x="209.199966" xlink:href="#NotoSansCJKjp-Bold-53"/>
      </g>
     </g>
    </g>
    <g id="text_9">
     <!-- c1_premotor -->
     <g style="fill:#262626;" transform="translate(258.708281 414.080859)scale(0.18 -0.18)">
      <defs>
       <path d="M 30.59375 -1.296875 
C 37.09375 -1.296875 43.296875 1.203125 48.203125 5.59375 
L 44.203125 11.703125 
C 40.796875 8.59375 36.40625 6.296875 31.40625 6.296875 
C 21.40625 6.296875 14.59375 14.59375 14.59375 27.09375 
C 14.59375 39.59375 21.796875 48.09375 31.703125 48.09375 
C 36 48.09375 39.296875 46.09375 42.5 43.296875 
L 47.203125 49.296875 
C 43.296875 52.703125 38.40625 55.703125 31.296875 55.703125 
C 17.40625 55.703125 5.09375 45.203125 5.09375 27.09375 
C 5.09375 9.09375 16.203125 -1.296875 30.59375 -1.296875 
z
" id="NotoSansCJKjp-Regular-99"/>
       <path d="M 8.796875 0 
L 49 0 
L 49 7.59375 
L 34.296875 7.59375 
L 34.296875 73.40625 
L 27.296875 73.40625 
C 23.296875 71 18.59375 69.296875 12.09375 68.09375 
L 12.09375 62.296875 
L 25.09375 62.296875 
L 25.09375 7.59375 
L 8.796875 7.59375 
z
" id="NotoSansCJKjp-Regular-49"/>
       <path d="M 1.296875 -14 
L 54.5 -14 
L 54.5 -7.90625 
L 1.296875 -7.90625 
z
" id="NotoSansCJKjp-Regular-95"/>
       <path d="M 9.203125 -22.90625 
L 18.296875 -22.90625 
L 18.296875 -4.5 
L 18.09375 5 
C 23 1 28.203125 -1.296875 33.09375 -1.296875 
C 45.59375 -1.296875 56.703125 9.40625 56.703125 28 
C 56.703125 44.703125 49.09375 55.703125 35.09375 55.703125 
C 28.796875 55.703125 22.703125 52.09375 17.796875 48.09375 
L 17.5 48.09375 
L 16.703125 54.296875 
L 9.203125 54.296875 
z
M 31.59375 6.296875 
C 28 6.296875 23.203125 7.796875 18.296875 12 
L 18.296875 40.5 
C 23.59375 45.40625 28.296875 48 32.90625 48 
C 43.203125 48 47.203125 39.90625 47.203125 27.90625 
C 47.203125 14.40625 40.59375 6.296875 31.59375 6.296875 
z
" id="NotoSansCJKjp-Regular-112"/>
       <path d="M 9.203125 0 
L 18.296875 0 
L 18.296875 34.90625 
C 21.90625 44.203125 27.5 47.40625 32 47.40625 
C 34.203125 47.40625 35.5 47.203125 37.296875 46.5 
L 39 54.5 
C 37.296875 55.40625 35.59375 55.703125 33.203125 55.703125 
C 27.09375 55.703125 21.59375 51.296875 17.796875 44.40625 
L 17.5 44.40625 
L 16.703125 54.296875 
L 9.203125 54.296875 
z
" id="NotoSansCJKjp-Regular-114"/>
       <path d="M 31.09375 -1.296875 
C 38.5 -1.296875 44.296875 1.203125 49.09375 4.296875 
L 45.796875 10.296875 
C 41.796875 7.59375 37.5 6 32.203125 6 
C 21.90625 6 14.796875 13.40625 14.203125 25 
L 50.796875 25 
C 51 26.296875 51.203125 28.203125 51.203125 30.203125 
C 51.203125 45.703125 43.40625 55.703125 29.59375 55.703125 
C 17 55.703125 5.09375 44.703125 5.09375 27.09375 
C 5.09375 9.203125 16.703125 -1.296875 31.09375 -1.296875 
z
M 14.09375 31.59375 
C 15.203125 42.203125 22 48.40625 29.703125 48.40625 
C 38.203125 48.40625 43.203125 42.5 43.203125 31.59375 
z
" id="NotoSansCJKjp-Regular-101"/>
       <path d="M 9.203125 0 
L 18.296875 0 
L 18.296875 39.40625 
C 23.296875 45 27.90625 47.703125 32 47.703125 
C 38.90625 47.703125 42.09375 43.40625 42.09375 33.203125 
L 42.09375 0 
L 51.203125 0 
L 51.203125 39.40625 
C 56.296875 45 60.703125 47.703125 64.90625 47.703125 
C 71.796875 47.703125 75 43.40625 75 33.203125 
L 75 0 
L 84.09375 0 
L 84.09375 34.40625 
C 84.09375 48.296875 78.796875 55.703125 67.59375 55.703125 
C 61 55.703125 55.296875 51.40625 49.703125 45.296875 
C 47.5 51.703125 43 55.703125 34.703125 55.703125 
C 28.203125 55.703125 22.5 51.59375 17.796875 46.40625 
L 17.5 46.40625 
L 16.703125 54.296875 
L 9.203125 54.296875 
z
" id="NotoSansCJKjp-Regular-109"/>
       <path d="M 30.296875 -1.296875 
C 43.59375 -1.296875 55.5 9.09375 55.5 27.09375 
C 55.5 45.203125 43.59375 55.703125 30.296875 55.703125 
C 17 55.703125 5.09375 45.203125 5.09375 27.09375 
C 5.09375 9.09375 17 -1.296875 30.296875 -1.296875 
z
M 30.296875 6.296875 
C 20.90625 6.296875 14.59375 14.59375 14.59375 27.09375 
C 14.59375 39.59375 20.90625 48.09375 30.296875 48.09375 
C 39.703125 48.09375 46.09375 39.59375 46.09375 27.09375 
C 46.09375 14.59375 39.703125 6.296875 30.296875 6.296875 
z
" id="NotoSansCJKjp-Regular-111"/>
       <path d="M 26.296875 -1.296875 
C 29.59375 -1.296875 33.203125 -0.296875 36.296875 0.703125 
L 34.5 7.5 
C 32.703125 6.796875 30.203125 6.09375 28.296875 6.09375 
C 22 6.09375 19.90625 9.90625 19.90625 16.59375 
L 19.90625 46.90625 
L 34.59375 46.90625 
L 34.59375 54.296875 
L 19.90625 54.296875 
L 19.90625 69.59375 
L 12.296875 69.59375 
L 11.203125 54.296875 
L 2.703125 53.796875 
L 2.703125 46.90625 
L 10.796875 46.90625 
L 10.796875 16.796875 
C 10.796875 6 14.703125 -1.296875 26.296875 -1.296875 
z
" id="NotoSansCJKjp-Regular-116"/>
      </defs>
      <use xlink:href="#NotoSansCJKjp-Regular-99"/>
      <use x="50.899994" xlink:href="#NotoSansCJKjp-Regular-49"/>
      <use x="106.399979" xlink:href="#NotoSansCJKjp-Regular-95"/>
      <use x="162.299973" xlink:href="#NotoSansCJKjp-Regular-112"/>
      <use x="224.299957" xlink:href="#NotoSansCJKjp-Regular-114"/>
      <use x="263.099945" xlink:href="#NotoSansCJKjp-Regular-101"/>
      <use x="318.499939" xlink:href="#NotoSansCJKjp-Regular-109"/>
      <use x="411.09993" xlink:href="#NotoSansCJKjp-Regular-111"/>
      <use x="471.699921" xlink:href="#NotoSansCJKjp-Regular-116"/>
      <use x="509.399918" xlink:href="#NotoSansCJKjp-Regular-111"/>
      <use x="569.999908" xlink:href="#NotoSansCJKjp-Regular-114"/>
     </g>
    </g>
   </g>
   <g id="matplotlib.axis_2">
    <g id="ytick_1">
     <g id="line2d_9">
      <defs>
       <path d="M 0 0 
L -6 0 
" id="m21c79cc3d7" style="stroke:#262626;stroke-width:1.25;"/>
      </defs>
      <g>
       <use style="fill:#262626;stroke:#262626;stroke-width:1.25;" x="63.96" xlink:href="#m21c79cc3d7" y="318.882458"/>
      </g>
     </g>
     <g id="text_10">
      <!-- 2 -->
      <g style="fill:#262626;" transform="translate(44.740469 325.4657)scale(0.165 -0.165)">
       <use xlink:href="#NotoSansCJKjp-Bold-50"/>
      </g>
     </g>
    </g>
    <g id="ytick_2">
     <g id="line2d_10">
      <g>
       <use style="fill:#262626;stroke:#262626;stroke-width:1.25;" x="63.96" xlink:href="#m21c79cc3d7" y="249.983739"/>
      </g>
     </g>
     <g id="text_11">
      <!-- 4 -->
      <g style="fill:#262626;" transform="translate(44.740469 256.566981)scale(0.165 -0.165)">
       <use xlink:href="#NotoSansCJKjp-Bold-52"/>
      </g>
     </g>
    </g>
    <g id="ytick_3">
     <g id="line2d_11">
      <g>
       <use style="fill:#262626;stroke:#262626;stroke-width:1.25;" x="63.96" xlink:href="#m21c79cc3d7" y="181.085019"/>
      </g>
     </g>
     <g id="text_12">
      <!-- 6 -->
      <g style="fill:#262626;" transform="translate(44.740469 187.668261)scale(0.165 -0.165)">
       <defs>
        <path d="M 30.796875 36.203125 
C 37.203125 36.203125 41.40625 32.09375 41.40625 23.40625 
C 41.40625 14.296875 36.796875 9.703125 31.296875 9.703125 
C 25.09375 9.703125 20.09375 14.90625 18.703125 28.40625 
C 22.09375 34 26.796875 36.203125 30.796875 36.203125 
z
M 31.59375 -1.40625 
C 44.203125 -1.40625 54.796875 8.203125 54.796875 23.40625 
C 54.796875 39.203125 46 46.59375 33.59375 46.59375 
C 28.796875 46.59375 22.40625 43.59375 18.40625 38.59375 
C 19 57.203125 26 63.59375 34.5 63.59375 
C 38.796875 63.59375 43.296875 61.203125 45.90625 58.203125 
L 53.703125 67 
C 49.203125 71.59375 42.703125 75.40625 33.59375 75.40625 
C 18.703125 75.40625 5 63.59375 5 36 
C 5 9.90625 17.5 -1.40625 31.59375 -1.40625 
z
" id="NotoSansCJKjp-Bold-54"/>
       </defs>
       <use xlink:href="#NotoSansCJKjp-Bold-54"/>
      </g>
     </g>
    </g>
    <g id="ytick_4">
     <g id="line2d_12">
      <g>
       <use style="fill:#262626;stroke:#262626;stroke-width:1.25;" x="63.96" xlink:href="#m21c79cc3d7" y="112.186299"/>
      </g>
     </g>
     <g id="text_13">
      <!-- 8 -->
      <g style="fill:#262626;" transform="translate(44.740469 118.769541)scale(0.165 -0.165)">
       <defs>
        <path d="M 29.40625 -1.40625 
C 44.40625 -1.40625 54.296875 7.203125 54.296875 18.40625 
C 54.296875 28.5 48.703125 34.5 41.90625 38.203125 
L 41.90625 38.703125 
C 46.796875 42.203125 51.40625 48.296875 51.40625 55.59375 
C 51.40625 67.40625 43 75.296875 29.90625 75.296875 
C 17.09375 75.296875 7.59375 67.703125 7.59375 55.796875 
C 7.59375 47.90625 11.703125 42.296875 17.40625 38.203125 
L 17.40625 37.703125 
C 10.5 34.09375 4.703125 27.90625 4.703125 18.40625 
C 4.703125 6.796875 15.296875 -1.40625 29.40625 -1.40625 
z
M 34.09375 42.296875 
C 26.296875 45.40625 20.59375 48.796875 20.59375 55.796875 
C 20.59375 61.703125 24.59375 65 29.59375 65 
C 35.796875 65 39.40625 60.703125 39.40625 54.703125 
C 39.40625 50.296875 37.703125 46.09375 34.09375 42.296875 
z
M 29.796875 9 
C 22.90625 9 17.40625 13.296875 17.40625 20 
C 17.40625 25.5 20.203125 30.5 24.203125 33.703125 
C 33.796875 29.796875 40.59375 26.59375 40.59375 18.90625 
C 40.59375 12.5 36.09375 9 29.796875 9 
z
" id="NotoSansCJKjp-Bold-56"/>
       </defs>
       <use xlink:href="#NotoSansCJKjp-Bold-56"/>
      </g>
     </g>
    </g>
    <g id="ytick_5">
     <g id="line2d_13">
      <g>
       <use style="fill:#262626;stroke:#262626;stroke-width:1.25;" x="63.96" xlink:href="#m21c79cc3d7" y="43.287579"/>
      </g>
     </g>
     <g id="text_14">
      <!-- 10 -->
      <g style="fill:#262626;" transform="translate(35.020938 49.870822)scale(0.165 -0.165)">
       <defs>
        <path d="M 8.203125 0 
L 52.703125 0 
L 52.703125 11.90625 
L 38.796875 11.90625 
L 38.796875 74.09375 
L 27.90625 74.09375 
C 23.203125 71.09375 18.09375 69.203125 10.703125 67.796875 
L 10.703125 58.703125 
L 24.09375 58.703125 
L 24.09375 11.90625 
L 8.203125 11.90625 
z
" id="NotoSansCJKjp-Bold-49"/>
       </defs>
       <use xlink:href="#NotoSansCJKjp-Bold-49"/>
       <use x="58.899994" xlink:href="#NotoSansCJKjp-Bold-48"/>
      </g>
     </g>
    </g>
    <g id="text_15">
     <!-- PCS_1 -->
     <g style="fill:#262626;" transform="translate(26.897813 218.079844)rotate(-90)scale(0.18 -0.18)">
      <defs>
       <path d="M 10 0 
L 19.296875 0 
L 19.296875 29.09375 
L 31.40625 29.09375 
C 47.5 29.09375 58.40625 36.296875 58.40625 51.796875 
C 58.40625 67.796875 47.40625 73.40625 31 73.40625 
L 10 73.40625 
z
M 19.296875 36.59375 
L 19.296875 65.796875 
L 29.796875 65.796875 
C 42.703125 65.796875 49.203125 62.40625 49.203125 51.796875 
C 49.203125 41.296875 43.09375 36.59375 30.203125 36.59375 
z
" id="NotoSansCJKjp-Regular-80"/>
       <path d="M 37.703125 -1.296875 
C 47.203125 -1.296875 54.40625 2.5 60.203125 9.203125 
L 55.09375 15 
C 50.40625 9.90625 45.09375 6.796875 38.09375 6.796875 
C 24.09375 6.796875 15.296875 18.40625 15.296875 36.90625 
C 15.296875 55.203125 24.5 66.59375 38.40625 66.59375 
C 44.703125 66.59375 49.59375 63.703125 53.40625 59.59375 
L 58.40625 65.59375 
C 54.203125 70.296875 47.203125 74.703125 38.296875 74.703125 
C 19.703125 74.703125 5.796875 60.296875 5.796875 36.59375 
C 5.796875 12.796875 19.5 -1.296875 37.703125 -1.296875 
z
" id="NotoSansCJKjp-Regular-67"/>
       <path d="M 30.40625 -1.296875 
C 45.703125 -1.296875 55.296875 7.90625 55.296875 19.5 
C 55.296875 30.40625 48.703125 35.40625 40.203125 39.09375 
L 29.703125 43.59375 
C 24 46 17.59375 48.703125 17.59375 55.796875 
C 17.59375 62.40625 23 66.59375 31.296875 66.59375 
C 38.09375 66.59375 43.5 63.90625 48 59.703125 
L 52.90625 65.59375 
C 47.703125 71 40 74.703125 31.296875 74.703125 
C 18 74.703125 8.203125 66.5 8.203125 55.203125 
C 8.203125 44.5 16.296875 39.296875 23.09375 36.40625 
L 33.703125 31.796875 
C 40.59375 28.703125 45.90625 26.296875 45.90625 18.796875 
C 45.90625 11.59375 40.09375 6.796875 30.5 6.796875 
C 22.90625 6.796875 15.5 10.40625 10.296875 15.90625 
L 4.703125 9.59375 
C 11.09375 2.90625 20 -1.296875 30.40625 -1.296875 
z
" id="NotoSansCJKjp-Regular-83"/>
      </defs>
      <use xlink:href="#NotoSansCJKjp-Regular-80"/>
      <use x="63.199997" xlink:href="#NotoSansCJKjp-Regular-67"/>
      <use x="126.999985" xlink:href="#NotoSansCJKjp-Regular-83"/>
      <use x="186.699982" xlink:href="#NotoSansCJKjp-Regular-95"/>
      <use x="242.599976" xlink:href="#NotoSansCJKjp-Regular-49"/>
     </g>
    </g>
   </g>
   <g id="PathCollection_1">
    <defs>
     <path d="M 0 3 
C 0.795609 3 1.55874 2.683901 2.12132 2.12132 
C 2.683901 1.55874 3 0.795609 3 0 
C 3 -0.795609 2.683901 -1.55874 2.12132 -2.12132 
C 1.55874 -2.683901 0.795609 -3 0 -3 
C -0.795609 -3 -1.55874 -2.683901 -2.12132 -2.12132 
C -2.683901 -1.55874 -3 -0.795609 -3 0 
C -3 0.795609 -2.683901 1.55874 -2.12132 2.12132 
C -1.55874 2.683901 -0.795609 3 0 3 
z
" id="m3c54789c1d" style="stroke:#000000;stroke-opacity:0.8;"/>
    </defs>
    <g clip-path="url(#p5de34fd665)">
     <use style="fill-opacity:0.8;stroke:#000000;stroke-opacity:0.8;" x="277.430534" xlink:href="#m3c54789c1d" y="181.085019"/>
     <use style="fill-opacity:0.8;stroke:#000000;stroke-opacity:0.8;" x="389.787436" xlink:href="#m3c54789c1d" y="181.085019"/>
     <use style="fill-opacity:0.8;stroke:#000000;stroke-opacity:0.8;" x="563.04" xlink:href="#m3c54789c1d" y="353.331818"/>
     <use style="fill-opacity:0.8;stroke:#000000;stroke-opacity:0.8;" x="63.96" xlink:href="#m3c54789c1d" y="181.085019"/>
     <use style="fill-opacity:0.8;stroke:#000000;stroke-opacity:0.8;" x="69.814548" xlink:href="#m3c54789c1d" y="146.635659"/>
     <use style="fill-opacity:0.8;stroke:#000000;stroke-opacity:0.8;" x="439.079019" xlink:href="#m3c54789c1d" y="215.534379"/>
     <use style="fill-opacity:0.8;stroke:#000000;stroke-opacity:0.8;" x="179.265008" xlink:href="#m3c54789c1d" y="112.186299"/>
    </g>
   </g>
   <g id="PolyCollection_1">
    <defs>
     <path d="M 63.96 -402.831818 
L 63.96 -259.23363 
L 69.001212 -259.77773 
L 74.042424 -259.304774 
L 79.083636 -258.848235 
L 84.124848 -257.864474 
L 89.166061 -257.031906 
L 94.207273 -256.570935 
L 99.248485 -255.809244 
L 104.289697 -254.620461 
L 109.330909 -253.695245 
L 114.372121 -253.047159 
L 119.413333 -252.528174 
L 124.454545 -251.98583 
L 129.495758 -251.097622 
L 134.53697 -250.181675 
L 139.578182 -249.07221 
L 144.619394 -248.415144 
L 149.660606 -247.302693 
L 154.701818 -245.587083 
L 159.74303 -243.88217 
L 164.784242 -242.166703 
L 169.825455 -240.512083 
L 174.866667 -238.735769 
L 179.907879 -237.231977 
L 184.949091 -235.862357 
L 189.990303 -234.496443 
L 195.031515 -233.076666 
L 200.072727 -231.095401 
L 205.113939 -229.108011 
L 210.155152 -227.120621 
L 215.196364 -225.599173 
L 220.237576 -224.348346 
L 225.278788 -222.577371 
L 230.32 -220.806396 
L 235.361212 -219.035422 
L 240.402424 -217.264447 
L 245.443636 -215.493472 
L 250.484848 -213.722498 
L 255.526061 -211.956643 
L 260.567273 -210.197594 
L 265.608485 -208.785207 
L 270.649697 -207.416444 
L 275.690909 -205.62738 
L 280.732121 -204.026992 
L 285.773333 -202.232726 
L 290.814545 -200.341959 
L 295.855758 -198.451193 
L 300.89697 -196.560426 
L 305.938182 -194.809492 
L 310.979394 -193.246698 
L 316.020606 -191.63146 
L 321.061818 -189.58267 
L 326.10303 -187.537894 
L 331.144242 -185.556288 
L 336.185455 -183.840821 
L 341.226667 -182.121412 
L 346.267879 -180.402696 
L 351.309091 -178.685885 
L 356.350303 -176.822871 
L 361.391515 -174.868475 
L 366.432727 -172.902188 
L 371.473939 -170.934 
L 376.515152 -168.974946 
L 381.556364 -167.015943 
L 386.597576 -165.060464 
L 391.638788 -163.10778 
L 396.68 -161.087306 
L 401.721212 -159.189354 
L 406.762424 -157.228134 
L 411.803636 -155.270701 
L 416.844848 -153.313268 
L 421.886061 -151.355835 
L 426.927273 -149.326637 
L 431.968485 -147.111174 
L 437.009697 -145.213506 
L 442.050909 -143.319065 
L 447.092121 -141.424624 
L 452.133333 -139.557461 
L 457.174545 -137.753493 
L 462.215758 -135.949775 
L 467.25697 -134.026475 
L 472.298182 -132.180516 
L 477.339394 -130.055447 
L 482.380606 -128.030995 
L 487.421818 -125.69849 
L 492.46303 -123.629824 
L 497.504242 -121.826121 
L 502.545455 -120.009702 
L 507.586667 -118.082399 
L 512.627879 -116.206789 
L 517.669091 -114.122859 
L 522.710303 -111.63155 
L 527.751515 -108.671027 
L 532.792727 -105.526589 
L 537.833939 -103.13895 
L 542.875152 -100.857219 
L 547.916364 -97.217837 
L 552.957576 -94.709445 
L 557.998788 -92.038101 
L 563.04 -89.374674 
L 563.04 -251.656142 
L 563.04 -251.656142 
L 557.998788 -251.89425 
L 552.957576 -252.13418 
L 547.916364 -252.374111 
L 542.875152 -252.614041 
L 537.833939 -252.853971 
L 532.792727 -253.093901 
L 527.751515 -253.333831 
L 522.710303 -253.665502 
L 517.669091 -254.072826 
L 512.627879 -254.48015 
L 507.586667 -254.887474 
L 502.545455 -255.294797 
L 497.504242 -255.702121 
L 492.46303 -256.109445 
L 487.421818 -256.516769 
L 482.380606 -256.924093 
L 477.339394 -257.331417 
L 472.298182 -257.73874 
L 467.25697 -258.146064 
L 462.215758 -258.553388 
L 457.174545 -258.953707 
L 452.133333 -259.222014 
L 447.092121 -259.260855 
L 442.050909 -259.299695 
L 437.009697 -259.338535 
L 431.968485 -259.377376 
L 426.927273 -259.416216 
L 421.886061 -259.448988 
L 416.844848 -259.479593 
L 411.803636 -259.510199 
L 406.762424 -259.540804 
L 401.721212 -260.084741 
L 396.68 -260.795909 
L 391.638788 -261.507076 
L 386.597576 -262.220939 
L 381.556364 -263.434016 
L 376.515152 -263.638934 
L 371.473939 -263.855995 
L 366.432727 -265.130473 
L 361.391515 -265.857856 
L 356.350303 -266.585239 
L 351.309091 -267.312622 
L 346.267879 -267.735963 
L 341.226667 -268.112309 
L 336.185455 -268.488654 
L 331.144242 -268.864999 
L 326.10303 -269.576983 
L 321.061818 -271.676922 
L 316.020606 -272.404305 
L 310.979394 -273.172545 
L 305.938182 -275.360491 
L 300.89697 -276.026805 
L 295.855758 -276.490137 
L 290.814545 -277.626076 
L 285.773333 -280.208925 
L 280.732121 -282.746752 
L 275.690909 -285.176792 
L 270.649697 -286.63431 
L 265.608485 -288.941107 
L 260.567273 -291.639551 
L 255.526061 -294.34072 
L 250.484848 -296.343217 
L 245.443636 -299.330193 
L 240.402424 -301.694408 
L 235.361212 -304.942317 
L 230.32 -307.846565 
L 225.278788 -310.547734 
L 220.237576 -313.255561 
L 215.196364 -315.964555 
L 210.155152 -318.673549 
L 205.113939 -321.382543 
L 200.072727 -324.17553 
L 195.031515 -327.105953 
L 189.990303 -329.455916 
L 184.949091 -332.239102 
L 179.907879 -335.188906 
L 174.866667 -338.13871 
L 169.825455 -341.088514 
L 164.784242 -344.038318 
L 159.74303 -346.988121 
L 154.701818 -349.931125 
L 149.660606 -352.867462 
L 144.619394 -355.803799 
L 139.578182 -358.740136 
L 134.53697 -361.676473 
L 129.495758 -364.61281 
L 124.454545 -367.549147 
L 119.413333 -370.485483 
L 114.372121 -373.42182 
L 109.330909 -376.358157 
L 104.289697 -379.302199 
L 99.248485 -382.250646 
L 94.207273 -385.199092 
L 89.166061 -388.147538 
L 84.124848 -391.059063 
L 79.083636 -394.000115 
L 74.042424 -396.941934 
L 69.001212 -399.886876 
L 63.96 -402.831818 
z
" id="meba43ed41e" style="stroke:#ffffff;stroke-opacity:0.15;"/>
    </defs>
    <g clip-path="url(#p5de34fd665)">
     <use style="fill-opacity:0.15;stroke:#ffffff;stroke-opacity:0.15;" x="0" xlink:href="#meba43ed41e" y="432"/>
    </g>
   </g>
   <g id="line2d_14">
    <path clip-path="url(#p5de34fd665)" d="M 63.96 127.505936 
L 69.001212 129.077443 
L 74.042424 130.648951 
L 79.083636 132.220458 
L 84.124848 133.791966 
L 89.166061 135.363473 
L 94.207273 136.934981 
L 99.248485 138.506488 
L 104.289697 140.077996 
L 109.330909 141.649503 
L 114.372121 143.221011 
L 119.413333 144.792518 
L 124.454545 146.364026 
L 129.495758 147.935533 
L 134.53697 149.507041 
L 139.578182 151.078548 
L 144.619394 152.650056 
L 149.660606 154.221563 
L 154.701818 155.793071 
L 159.74303 157.364578 
L 164.784242 158.936086 
L 169.825455 160.507593 
L 174.866667 162.079101 
L 179.907879 163.650608 
L 184.949091 165.222116 
L 189.990303 166.793623 
L 195.031515 168.365131 
L 200.072727 169.936638 
L 205.113939 171.508145 
L 210.155152 173.079653 
L 215.196364 174.65116 
L 220.237576 176.222668 
L 225.278788 177.794175 
L 230.32 179.365683 
L 235.361212 180.93719 
L 240.402424 182.508698 
L 245.443636 184.080205 
L 250.484848 185.651713 
L 255.526061 187.22322 
L 260.567273 188.794728 
L 265.608485 190.366235 
L 270.649697 191.937743 
L 275.690909 193.50925 
L 280.732121 195.080758 
L 285.773333 196.652265 
L 290.814545 198.223773 
L 295.855758 199.79528 
L 300.89697 201.366788 
L 305.938182 202.938295 
L 310.979394 204.509803 
L 316.020606 206.08131 
L 321.061818 207.652818 
L 326.10303 209.224325 
L 331.144242 210.795833 
L 336.185455 212.36734 
L 341.226667 213.938848 
L 346.267879 215.510355 
L 351.309091 217.081863 
L 356.350303 218.65337 
L 361.391515 220.224878 
L 366.432727 221.796385 
L 371.473939 223.367893 
L 376.515152 224.9394 
L 381.556364 226.510907 
L 386.597576 228.082415 
L 391.638788 229.653922 
L 396.68 231.22543 
L 401.721212 232.796937 
L 406.762424 234.368445 
L 411.803636 235.939952 
L 416.844848 237.51146 
L 421.886061 239.082967 
L 426.927273 240.654475 
L 431.968485 242.225982 
L 437.009697 243.79749 
L 442.050909 245.368997 
L 447.092121 246.940505 
L 452.133333 248.512012 
L 457.174545 250.08352 
L 462.215758 251.655027 
L 467.25697 253.226535 
L 472.298182 254.798042 
L 477.339394 256.36955 
L 482.380606 257.941057 
L 487.421818 259.512565 
L 492.46303 261.084072 
L 497.504242 262.65558 
L 502.545455 264.227087 
L 507.586667 265.798595 
L 512.627879 267.370102 
L 517.669091 268.94161 
L 522.710303 270.513117 
L 527.751515 272.084625 
L 532.792727 273.656132 
L 537.833939 275.22764 
L 542.875152 276.799147 
L 547.916364 278.370654 
L 552.957576 279.942162 
L 557.998788 281.513669 
L 563.04 283.085177 
" style="fill:none;stroke:#000000;stroke-linecap:round;stroke-width:2.25;"/>
   </g>
   <g id="patch_3">
    <path d="M 63.96 369.54 
L 63.96 12.96 
" style="fill:none;stroke:#262626;stroke-linecap:square;stroke-linejoin:miter;stroke-width:1.25;"/>
   </g>
   <g id="patch_4">
    <path d="M 563.04 369.54 
L 563.04 12.96 
" style="fill:none;"/>
   </g>
   <g id="patch_5">
    <path d="M 63.96 369.54 
L 563.04 369.54 
" style="fill:none;stroke:#262626;stroke-linecap:square;stroke-linejoin:miter;stroke-width:1.25;"/>
   </g>
   <g id="patch_6">
    <path d="M 63.96 12.96 
L 563.04 12.96 
" style="fill:none;"/>
   </g>
  </g>
 </g>
 <defs>
  <clipPath id="p5de34fd665">
   <rect height="356.58" width="499.08" x="63.96" y="12.96"/>
  </clipPath>
 </defs>
</svg>
